<svg viewBox="0 0 55.39 63" xmlns="http://www.w3.org/2000/svg"><path d="m30.16 62.09.42-.16c2.2-.9 4-2.42 6.89-5.19l.3-.28a99.13 99.13 0 0 0 10.46-11.62c.79-1 1.66-2.29 2.53-3.62 2.41-3.65 3.92-6.51 4.45-8.52a6.22 6.22 0 0 0 .18-1.2 6.32 6.32 0 0 0 -.18-1.21c-.53-2-2-4.86-4.45-8.52-.87-1.33-1.74-2.59-2.53-3.62a98.3 98.3 0 0 0 -10.46-11.61l-.3-.29c-2.86-2.76-4.69-4.25-6.89-5.19l-.42-.16c-2.44-.9-5.04-.9-10.16-.9l-17.28.11c-1.29.01-1.93.01-2.33.42s-.39 1.05-.39 2.33v57.28c0 1.28 0 1.93.39 2.32s1 .41 2.33.43l17.28.11c5.12 0 7.72 0 10.16-.91zm-10.25-8.53-7.51-.05c-1.42 0-2.13 0-2.57-.44s-.45-1.17-.43-2.59v-38c0-1.42 0-2.13.43-2.59s1.17-.41 2.57-.41l7.51-.05c5.49 0 7.25.35 11.23 4.17a76.57 76.57 0 0 1 9.38 10.62 49.87 49.87 0 0 1 3.77 5.58 4.37 4.37 0 0 1 .42 1.7 4.34 4.34 0 0 1 -.42 1.69 49.87 49.87 0 0 1 -3.77 5.58 75.43 75.43 0 0 1 -9.38 10.62c-3.98 3.83-5.74 4.2-11.23 4.17z" fill="#43b649" fill-rule="evenodd"/></svg>
