<svg viewBox="0 0 420.81 64" xmlns="http://www.w3.org/2000/svg"><title>Defynance</title><path d="m67.6 61.22c0 1.31 0 2 .41 2.37s1.06.41 2.37.41h34.62c1.31 0 2 0 2.38-.41s.4-1.06.4-2.37v-3.46c0-1.31 0-2-.4-2.37s-1.07-.39-2.38-.39h-25.08c-1.31 0-2 0-2.38-.41s-.4-1.06-.4-2.37v-12.93c0-1.31 0-2 .4-2.38s1.07-.41 2.38-.41h20.59c1.31 0 2 0 2.38-.4s.4-1.07.4-2.38v-2.89c0-1.31 0-2-.4-2.38s-1.07-.4-2.38-.4h-20.59c-1.31 0-2 0-2.38-.41s-.4-1.07-.4-2.38v-12.39c0-1.31 0-2 .4-2.37s1.07-.41 2.38-.41h25.08c1.31 0 2 0 2.38-.41s.4-1.06.4-2.37v-3.46c0-1.31 0-2-.4-2.37s-1.07-.41-2.38-.41h-34.62c-1.31 0-2 0-2.37.41s-.41 1.06-.41 2.37z"/><path d="m123 61.22c0 1.31 0 2 .41 2.37s1.06.41 2.37.41h4c1.31 0 2 0 2.37-.41s.41-1.06.41-2.37v-21.33c0-1.31 0-2 .41-2.37s1.06-.41 2.37-.41h20.6c1.31 0 2 0 2.37-.41s.41-1.06.41-2.37v-2.9c0-1.31 0-2-.41-2.37s-1.06-.41-2.37-.41h-20.6c-1.31 0-2 0-2.37-.41s-.41-1.06-.41-2.37v-13c0-1.31 0-2 .41-2.37s1.06-.41 2.37-.41h25.08c1.32 0 2 0 2.38-.41s.41-1.06.41-2.37v-3.46c0-1.31 0-2-.41-2.37s-1.06-.41-2.38-.41h-34.65c-1.31 0-2 0-2.37.41s-.4 1.06-.4 2.37z"/><path d="m189.24 61.22c0 1.31 0 2 .41 2.37s1.06.41 2.38.41h3.41c1.31 0 2 0 2.37-.41s.41-1.06.41-2.37v-22.45a2.81 2.81 0 0 1 0-.66 2.49 2.49 0 0 1 .27-.6l16.61-32.39c.93-1.81 1.39-2.72 1-3.39s-1.42-.66-3.46-.66h-3.8a3.1 3.1 0 0 0 -1.61.21c-.35.22-.53.6-.9 1.37l-10.09 21.09c-1.09 2.28-1.63 3.42-2.51 3.42s-1.42-1.14-2.51-3.42l-10.07-21.09c-.37-.77-.55-1.15-.89-1.37a3.15 3.15 0 0 0 -1.62-.21h-3.8c-2 0-3.05 0-3.46.66s.06 1.58 1 3.39l16.57 32.39a2.36 2.36 0 0 1 .26.6 2.81 2.81 0 0 1 0 .66z"/><path d="m227.07 64c-1.31 0-2 0-2.37-.41s-.41-1.06-.41-2.37v-57.38c0-1.31 0-2 .41-2.37s1.06-.41 2.37-.41h3.93c.95 0 1.42 0 1.78.25s.52.7.84 1.59l12.93 36a.09.09 0 0 0 .1.07.1.1 0 0 0 .1-.1v-35c0-1.31 0-2 .41-2.37s1.06-.41 2.37-.41h3.47c1.31 0 2 0 2.37.41s.41 1.06.41 2.37v57.35c0 1.31 0 2-.41 2.37s-1.08.41-2.37.41h-3.76c-.94 0-1.41 0-1.77-.25s-.52-.7-.85-1.58l-13.11-35.94a.11.11 0 0 0 -.1-.06.1.1 0 0 0 -.11.1v35c0 1.31 0 2-.4 2.37s-1.07.41-2.38.41z"/><path d="m284.94 42c1.56 0 2.34 0 2.76-.51s.27-1.27 0-2.8l-3.76-19.41a.11.11 0 0 0 -.11-.09.11.11 0 0 0 -.1.09l-3.76 19.41c-.3 1.53-.45 2.3 0 2.8s1.2.51 2.76.51zm-15.43 22c-1.6 0-2.4 0-2.82-.52s-.25-1.3.1-2.87l12.82-57.37c.23-1.05.35-1.57.73-1.87s.91-.31 2-.31h3.06c1.07 0 1.6 0 2 .31s.5.82.73 1.87l12.77 57.37c.35 1.57.53 2.35.11 2.87s-1.22.52-2.82.52h-3.26c-1.09 0-1.64 0-2-.32s-.5-.85-.71-1.93l-1.77-9c-.21-1.07-.31-1.61-.7-1.93s-.93-.32-2-.32h-7.75c-1.1 0-1.65 0-2 .32s-.49.86-.71 1.93l-1.77 9c-.21 1.08-.31 1.62-.7 1.93s-.93.32-2 .32z"/><path d="m314.72 64c-1.31 0-2 0-2.37-.41s-.41-1.06-.41-2.37v-57.38c0-1.31 0-2 .41-2.37s1.06-.41 2.37-.41h3.92c.95 0 1.43 0 1.78.25s.53.7.85 1.59l12.92 36a.1.1 0 0 0 .1.07.09.09 0 0 0 .1-.1v-35c0-1.31 0-2 .41-2.37s1.06-.41 2.37-.41h3.46c1.31 0 2 0 2.37.41s.41 1.06.41 2.37v57.35c0 1.31 0 2-.41 2.37s-1.06.41-2.37.41h-3.76c-.94 0-1.41 0-1.77-.25s-.52-.7-.84-1.58l-13.1-35.94a.11.11 0 0 0 -.1-.06.09.09 0 0 0 -.1.1v35c0 1.31 0 2-.41 2.37s-1.06.41-2.38.41z"/><path d="m381.62 45.52c1.32 0 2 0 2.38.41s.4 1.07.4 2.38v1.1a13.91 13.91 0 0 1 -1.14 5.59 14.83 14.83 0 0 1 -3 4.6 15 15 0 0 1 -4.59 3.27 13.43 13.43 0 0 1 -5.59 1.13 20.28 20.28 0 0 1 -5.21-.71 12.23 12.23 0 0 1 -4.77-2.47 14.2 14.2 0 0 1 -3.54-4.51 17 17 0 0 1 -1.32-7.16v-34.65a15.28 15.28 0 0 1 1.06-5.75 13.38 13.38 0 0 1 3-4.6 13.68 13.68 0 0 1 4.6-3 15.33 15.33 0 0 1 6-1.15 13.67 13.67 0 0 1 10.34 4.15 14.14 14.14 0 0 1 3 4.87 15.47 15.47 0 0 1 1.14 6v.75c0 1.31 0 2-.4 2.38s-1.06.4-2.38.4h-3.45c-1.31 0-2 0-2.37-.4s-.41-1.07-.41-2.38v-.22a7.32 7.32 0 0 0 -1.5-4.6 4.87 4.87 0 0 0 -4.05-1.95c-2.24 0-3.74.7-4.51 2.12a11.17 11.17 0 0 0 -1.06 5.21v32.2a8.65 8.65 0 0 0 1.15 4.6q1.25 1.87 4.33 1.87a7.37 7.37 0 0 0 1.86-.26 6.33 6.33 0 0 0 1.94-1.06 5.33 5.33 0 0 0 1.33-1.95 7.9 7.9 0 0 0 .53-3.09v-.31c0-1.31 0-2 .41-2.38s1.06-.41 2.37-.41z"/><path d="m396.72 64c-1.31 0-2 0-2.37-.41s-.41-1.06-.41-2.37v-57.38c0-1.31 0-2 .41-2.37s1.06-.41 2.37-.41h21.28c1.31 0 2 0 2.38.41s.4 1.06.4 2.37v2.92c0 1.32 0 2-.4 2.38s-1.07.41-2.38.41h-12.26c-1.31 0-2 0-2.38.4s-.36 1.05-.36 2.38v12.91c0 1.31 0 2 .4 2.37s1.07.41 2.38.41h10c1.31 0 2 0 2.38.41s.4 1.06.4 2.37v2.93c0 1.31 0 2-.4 2.37s-1.07.41-2.38.41h-10c-1.31 0-2 0-2.38.41s-.4 1.08-.4 2.37v12.91c0 1.31 0 2 .4 2.38s1.07.4 2.38.4h12.22c1.31 0 2 0 2.38.41s.4 1.06.4 2.38v3.45c0 1.31 0 2-.4 2.37s-1.04.41-2.38.41z"/><path d="m30.16 63.1.42-.16c2.2-.91 4-2.43 6.89-5.19l.3-.29a98.3 98.3 0 0 0 10.46-11.61c.79-1 1.66-2.29 2.53-3.62 2.41-3.66 3.92-6.52 4.45-8.52a6.32 6.32 0 0 0 .18-1.21 6.22 6.22 0 0 0 -.18-1.2c-.53-2-2-4.87-4.45-8.52-.87-1.33-1.74-2.59-2.53-3.62a99.13 99.13 0 0 0 -10.46-11.62l-.3-.28c-2.86-2.77-4.69-4.26-6.89-5.19l-.42-.16c-2.44-.91-5.04-.91-10.16-.91l-17.28.1c-1.29 0-1.93 0-2.33.43s-.39 1.05-.39 2.33v57.28c0 1.28 0 1.94.39 2.33s1 .41 2.33.42l17.28.11c5.12 0 7.72 0 10.16-.9zm-10.25-8.53h-7.51c-1.42 0-2.13 0-2.57-.45s-.45-1.17-.43-2.59v-38c0-1.42 0-2.13.43-2.59s1.15-.44 2.57-.44l7.51-.05c5.49 0 7.25.34 11.23 4.17a75.43 75.43 0 0 1 9.38 10.62 49.87 49.87 0 0 1 3.77 5.58 4.34 4.34 0 0 1 .42 1.69 4.37 4.37 0 0 1 -.42 1.7 49.87 49.87 0 0 1 -3.77 5.58 76.57 76.57 0 0 1 -9.38 10.61c-3.98 3.82-5.74 4.2-11.23 4.17z" fill-rule="evenodd"/></svg>
